{
  "accessors": [
    {
      "bufferView": 2,
      "componentType": 5126,
      "count": 8428,
      "max": [
        1.439834475517273,
        1.8210960626602173,
        1.909148931503296
      ],
      "min": [
        -2.0357553958892822,
        -1.8189055919647217,
        -1.9058353900909424
      ],
      "type": "VEC3"
    },
    {
      "bufferView": 2,
      "byteOffset": 101136,
      "componentType": 5126,
      "count": 8428,
      "max": [
        1.0,
        1.0,
        1.0
      ],
      "min": [
        -1.0,
        -1.0,
        -1.0
      ],
      "type": "VEC3"
    },
    {
      "bufferView": 3,
      "componentType": 5126,
      "count": 8428,
      "max": [
        1.0,
        1.0,
        1.0,
        1.0
      ],
      "min": [
        -0.9999968409538269,
        -1.0,
        -1.0,
        -1.0
      ],
      "type": "VEC4"
    },
    {
      "bufferView": 1,
      "componentType": 5126,
      "count": 8428,
      "max": [
        1.0,
        0.9999998807907104
      ],
      "min": [
        0.0,
        0.0
      ],
      "type": "VEC2"
    },
    {
      "bufferView": 1,
      "byteOffset": 67424,
      "componentType": 5126,
      "count": 8428,
      "max": [
        1.0,
        0.9999998807907104
      ],
      "min": [
        0.0,
        0.0
      ],
      "type": "VEC2"
    },
    {
      "bufferView": 1,
      "byteOffset": 134848,
      "componentType": 5126,
      "count": 8428,
      "max": [
        1.0,
        0.9999998807907104
      ],
      "min": [
        0.0,
        0.0
      ],
      "type": "VEC2"
    },
    {
      "bufferView": 0,
      "componentType": 5125,
      "count": 21093,
      "type": "SCALAR"
    },
    {
      "bufferView": 2,
      "byteOffset": 202272,
      "componentType": 5126,
      "count": 184,
      "max": [
        1.1746594905853271,
        1.6429435014724731,
        1.909148931503296
      ],
      "min": [
        -2.0357553958892822,
        -1.6407530307769775,
        -1.9058353900909424
      ],
      "type": "VEC3"
    },
    {
      "bufferView": 2,
      "byteOffset": 204480,
      "componentType": 5126,
      "count": 184,
      "max": [
        1.0,
        1.0,
        1.0
      ],
      "min": [
        -1.0,
        -1.0,
        -1.0
      ],
      "type": "VEC3"
    },
    {
      "bufferView": 3,
      "byteOffset": 134848,
      "componentType": 5126,
      "count": 184,
      "max": [
        0.9966442584991455,
        1.0,
        1.0,
        1.0
      ],
      "min": [
        -0.0001441692147636786,
        -1.0,
        -1.0,
        -1.0
      ],
      "type": "VEC4"
    },
    {
      "bufferView": 1,
      "byteOffset": 202272,
      "componentType": 5126,
      "count": 184,
      "max": [
        1.0,
        1.0
      ],
      "min": [
        0.0,
        0.0
      ],
      "type": "VEC2"
    },
    {
      "bufferView": 1,
      "byteOffset": 203744,
      "componentType": 5126,
      "count": 184,
      "max": [
        1.0,
        1.0
      ],
      "min": [
        0.0,
        0.0
      ],
      "type": "VEC2"
    },
    {
      "bufferView": 0,
      "byteOffset": 84372,
      "componentType": 5125,
      "count": 336,
      "type": "SCALAR"
    },
    {
      "bufferView": 2,
      "byteOffset": 206688,
      "componentType": 5126,
      "count": 2168,
      "max": [
        21.68107032775879,
        1.7164362668991089,
        -0.24849700927734375
      ],
      "min": [
        -21.718935012817383,
        -1.7164362668991089,
        -0.44849705696105957
      ],
      "type": "VEC3"
    },
    {
      "bufferView": 2,
      "byteOffset": 232704,
      "componentType": 5126,
      "count": 2168,
      "max": [
        1.0,
        1.0,
        1.0
      ],
      "min": [
        -1.0,
        -1.0,
        -1.0
      ],
      "type": "VEC3"
    },
    {
      "bufferView": 3,
      "byteOffset": 137792,
      "componentType": 5126,
      "count": 2168,
      "max": [
        1.0,
        1.0,
        1.0,
        1.0
      ],
      "min": [
        -1.0,
        -1.0,
        -1.0,
        -1.0
      ],
      "type": "VEC4"
    },
    {
      "bufferView": 1,
      "byteOffset": 205216,
      "componentType": 5126,
      "count": 2168,
      "max": [
        0.9571921825408936,
        0.9404387474060059
      ],
      "min": [
        2.382766650654844e-09,
        0.0
      ],
      "type": "VEC2"
    },
    {
      "bufferView": 1,
      "byteOffset": 222560,
      "componentType": 5126,
      "count": 2168,
      "max": [
        0.9571921825408936,
        0.9404387474060059
      ],
      "min": [
        2.382766650654844e-09,
        0.0
      ],
      "type": "VEC2"
    },
    {
      "bufferView": 0,
      "byteOffset": 85716,
      "componentType": 5125,
      "count": 3600,
      "type": "SCALAR"
    },
    {
      "bufferView": 2,
      "byteOffset": 258720,
      "componentType": 5126,
      "count": 2410,
      "max": [
        21.610733032226563,
        1.6460986137390137,
        -0.44849705696105957
      ],
      "min": [
        -21.648597717285156,
        -1.6460986137390137,
        -1.6436187028884888
      ],
      "type": "VEC3"
    },
    {
      "bufferView": 2,
      "byteOffset": 287640,
      "componentType": 5126,
      "count": 2410,
      "max": [
        1.0,
        1.0,
        1.0
      ],
      "min": [
        -1.0,
        -1.0,
        -1.0
      ],
      "type": "VEC3"
    },
    {
      "bufferView": 1,
      "byteOffset": 239904,
      "componentType": 5126,
      "count": 2410,
      "max": [
        0.9999999403953552,
        1.0
      ],
      "min": [
        0.0,
        1.5491541205392423e-07
      ],
      "type": "VEC2"
    },
    {
      "bufferView": 0,
      "byteOffset": 100116,
      "componentType": 5125,
      "count": 3672,
      "type": "SCALAR"
    },
    {
      "bufferView": 2,
      "byteOffset": 316560,
      "componentType": 5126,
      "count": 2584,
      "max": [
        18.102916717529297,
        7.629911422729492,
        1.0
      ],
      "min": [
        -18.353084564208984,
        -7.629911422729492,
        -1.0
      ],
      "type": "VEC3"
    },
    {
      "bufferView": 2,
      "byteOffset": 347568,
      "componentType": 5126,
      "count": 2584,
      "max": [
        1.0,
        1.0,
        1.0
      ],
      "min": [
        -1.0,
        -1.0,
        -1.0
      ],
      "type": "VEC3"
    },
    {
      "bufferView": 3,
      "byteOffset": 172480,
      "componentType": 5126,
      "count": 2584,
      "max": [
        0.9702547788619995,
        1.0,
        0.5937288999557495,
        1.0
      ],
      "min": [
        -0.9702547788619995,
        -1.0,
        -1.0,
        1.0
      ],
      "type": "VEC4"
    },
    {
      "bufferView": 1,
      "byteOffset": 259184,
      "componentType": 5126,
      "count": 2584,
      "max": [
        1.0,
        1.0
      ],
      "min": [
        0.0,
        0.0
      ],
      "type": "VEC2"
    },
    {
      "bufferView": 1,
      "byteOffset": 279856,
      "componentType": 5126,
      "count": 2584,
      "max": [
        1.0,
        1.0
      ],
      "min": [
        0.0,
        0.0
      ],
      "type": "VEC2"
    },
    {
      "bufferView": 0,
      "byteOffset": 114804,
      "componentType": 5125,
      "count": 4248,
      "type": "SCALAR"
    },
    {
      "bufferView": 2,
      "byteOffset": 378576,
      "componentType": 5126,
      "count": 912,
      "max": [
        6.0,
        7.778293609619141,
        1.0
      ],
      "min": [
        -6.0,
        -7.778293609619141,
        -1.0
      ],
      "type": "VEC3"
    },
    {
      "bufferView": 2,
      "byteOffset": 389520,
      "componentType": 5126,
      "count": 912,
      "max": [
        1.0,
        1.0,
        1.0
      ],
      "min": [
        -1.0,
        -1.0,
        -1.0
      ],
      "type": "VEC3"
    },
    {
      "bufferView": 1,
      "byteOffset": 300528,
      "componentType": 5126,
      "count": 912,
      "max": [
        0.899999737739563,
        1.000000238418579
      ],
      "min": [
        -1.5695822241923452e-07,
        -3.93402288523248e-08
      ],
      "type": "VEC2"
    },
    {
      "bufferView": 0,
      "byteOffset": 131796,
      "componentType": 5125,
      "count": 1872,
      "type": "SCALAR"
    },
    {
      "bufferView": 2,
      "byteOffset": 400464,
      "componentType": 5126,
      "count": 24,
      "max": [
        5.947612762451172,
        7.746511459350586,
        0.9259989857673645
      ],
      "min": [
        -5.947612762451172,
        -7.746511459350586,
        -0.9259989857673645
      ],
      "type": "VEC3"
    },
    {
      "bufferView": 2,
      "byteOffset": 400752,
      "componentType": 5126,
      "count": 24,
      "max": [
        0.0,
        1.0,
        0.0
      ],
      "min": [
        0.0,
        -1.0,
        0.0
      ],
      "type": "VEC3"
    },
    {
      "bufferView": 1,
      "byteOffset": 307824,
      "componentType": 5126,
      "count": 24,
      "max": [
        0.8888998627662659,
        0.9869030117988586
      ],
      "min": [
        0.011099896393716335,
        0.013096471317112446
      ],
      "type": "VEC2"
    },
    {
      "bufferView": 0,
      "byteOffset": 139284,
      "componentType": 5125,
      "count": 36,
      "type": "SCALAR"
    }
  ],
  "asset": {
    "extras": {
      "author": "dylanheyes (https://sketchfab.com/dylanheyes)",
      "license": "CC-BY-4.0 (http://creativecommons.org/licenses/by/4.0/)",
      "source": "https://sketchfab.com/3d-models/vr-gallery-14ff70243a9c4c9c86af455335f2bed9",
      "title": "VR Gallery"
    },
    "generator": "Sketchfab-15.59.0",
    "version": "2.0"
  },
  "bufferViews": [
    {
      "buffer": 0,
      "byteLength": 139428,
      "name": "floatBufferViews",
      "target": 34963
    },
    {
      "buffer": 0,
      "byteLength": 308016,
      "byteOffset": 139428,
      "byteStride": 8,
      "name": "floatBufferViews",
      "target": 34962
    },
    {
      "buffer": 0,
      "byteLength": 401040,
      "byteOffset": 447444,
      "byteStride": 12,
      "name": "floatBufferViews",
      "target": 34962
    },
    {
      "buffer": 0,
      "byteLength": 213824,
      "byteOffset": 848484,
      "byteStride": 16,
      "name": "floatBufferViews",
      "target": 34962
    }
  ],
  "buffers": [
    {
      "byteLength": 1062308,
      "uri": "scene.bin"
    }
  ],
  "images": [
    {
      "uri": "textures/Structure_baseColor.png"
    },
    {
      "uri": "textures/Structure_metallicRoughness.png"
    },
    {
      "uri": "textures/Structure_emissive.png"
    },
    {
      "uri": "textures/Structure_normal.png"
    },
    {
      "uri": "textures/Backwall_baseColor.png"
    },
    {
      "uri": "textures/Backwall_metallicRoughness.png"
    },
    {
      "uri": "textures/Backwall_normal.png"
    },
    {
      "uri": "textures/Benches_baseColor.png"
    },
    {
      "uri": "textures/Benches_metallicRoughness.png"
    },
    {
      "uri": "textures/Benches_normal.png"
    },
    {
      "uri": "textures/Podiums_baseColor.png"
    },
    {
      "uri": "textures/Podiums_metallicRoughness.png"
    },
    {
      "uri": "textures/Podiums_normal.png"
    },
    {
      "uri": "textures/Portraits_baseColor.png"
    }
  ],
  "materials": [
    {
      "emissiveFactor": [
        1.0,
        1.0,
        1.0
      ],
      "emissiveTexture": {
        "index": 2,
        "texCoord": 1
      },
      "name": "Structure",
      "normalTexture": {
        "index": 3,
        "texCoord": 2
      },
      "occlusionTexture": {
        "index": 1
      },
      "pbrMetallicRoughness": {
        "baseColorTexture": {
          "index": 0
        },
        "metallicFactor": 0.0,
        "metallicRoughnessTexture": {
          "index": 1
        }
      }
    },
    {
      "name": "Backwall",
      "normalTexture": {
        "index": 6,
        "texCoord": 1
      },
      "pbrMetallicRoughness": {
        "baseColorFactor": [
          0.47,
          0.47,
          0.47,
          1.0
        ],
        "baseColorTexture": {
          "index": 4
        },
        "metallicFactor": 0.0,
        "metallicRoughnessTexture": {
          "index": 5
        }
      }
    },
    {
      "doubleSided": true,
      "name": "Benches",
      "normalTexture": {
        "index": 9
      },
      "occlusionTexture": {
        "index": 8
      },
      "pbrMetallicRoughness": {
        "baseColorTexture": {
          "index": 7
        },
        "metallicFactor": 0.0,
        "metallicRoughnessTexture": {
          "index": 8
        }
      }
    },
    {
      "doubleSided": true,
      "name": "Chrome",
      "pbrMetallicRoughness": {
        "baseColorFactor": [
          0.27396377608856354,
          0.27396377608856354,
          0.27396377608856354,
          1.0
        ],
        "roughnessFactor": 0.0
      }
    },
    {
      "doubleSided": true,
      "name": "Podiums",
      "normalTexture": {
        "index": 12
      },
      "occlusionTexture": {
        "index": 11
      },
      "pbrMetallicRoughness": {
        "baseColorTexture": {
          "index": 10
        },
        "metallicFactor": 0.0,
        "metallicRoughnessTexture": {
          "index": 11
        }
      }
    },
    {
      "name": "PaintingFrame",
      "pbrMetallicRoughness": {
        "baseColorFactor": [
          0.24306499303693305,
          0.21960097319770772,
          0.19609057401539445,
          1.0
        ],
        "metallicFactor": 0.5061012759394323,
        "roughnessFactor": 0.0
      }
    },
    {
      "name": "Portraits",
      "pbrMetallicRoughness": {
        "baseColorFactor": [
          0.4537960692466906,
          0.4537960692466906,
          0.4537960692466906,
          1.0
        ],
        "baseColorTexture": {
          "index": 13
        },
        "metallicFactor": 0.0,
        "roughnessFactor": 0.8040408205773457
      }
    }
  ],
  "meshes": [
    {
      "name": "Gallery_Structure_0",
      "primitives": [
        {
          "attributes": {
            "NORMAL": 1,
            "POSITION": 0,
            "TANGENT": 2,
            "TEXCOORD_0": 3,
            "TEXCOORD_1": 4,
            "TEXCOORD_2": 5
          },
          "indices": 6,
          "material": 0,
          "mode": 4
        }
      ]
    },
    {
      "name": "Gallery_Backwall_0",
      "primitives": [
        {
          "attributes": {
            "NORMAL": 8,
            "POSITION": 7,
            "TANGENT": 9,
            "TEXCOORD_0": 10,
            "TEXCOORD_1": 11
          },
          "indices": 12,
          "material": 1,
          "mode": 4
        }
      ]
    },
    {
      "name": "Benches_Benches_0",
      "primitives": [
        {
          "attributes": {
            "NORMAL": 14,
            "POSITION": 13,
            "TANGENT": 15,
            "TEXCOORD_0": 16,
            "TEXCOORD_1": 17
          },
          "indices": 18,
          "material": 2,
          "mode": 4
        }
      ]
    },
    {
      "name": "Benches_Chrome_0",
      "primitives": [
        {
          "attributes": {
            "NORMAL": 20,
            "POSITION": 19,
            "TEXCOORD_0": 21
          },
          "indices": 22,
          "material": 3,
          "mode": 4
        }
      ]
    },
    {
      "name": "Podiums_Podiums_0",
      "primitives": [
        {
          "attributes": {
            "NORMAL": 24,
            "POSITION": 23,
            "TANGENT": 25,
            "TEXCOORD_0": 26,
            "TEXCOORD_1": 27
          },
          "indices": 28,
          "material": 4,
          "mode": 4
        }
      ]
    },
    {
      "name": "Portraits_PaintingFrame_0",
      "primitives": [
        {
          "attributes": {
            "NORMAL": 30,
            "POSITION": 29,
            "TEXCOORD_0": 31
          },
          "indices": 32,
          "material": 5,
          "mode": 4
        }
      ]
    },
    {
      "name": "Portraits_Portraits_0",
      "primitives": [
        {
          "attributes": {
            "NORMAL": 34,
            "POSITION": 33,
            "TEXCOORD_0": 35
          },
          "indices": 36,
          "material": 6,
          "mode": 4
        }
      ]
    }
  ],
  "nodes": [
    {
      "children": [
        1
      ],
      "matrix": [
        0.3820335865020752,
        0.0,
        0.0,
        0.0,
        0.0,
        8.482849678294606e-17,
        -0.3820335865020752,
        0.0,
        0.0,
        0.3820335865020752,
        8.482849678294606e-17,
        0.0,
        0.0,
        0.0,
        0.0,
        1.0
      ],
      "name": "Sketchfab_model"
    },
    {
      "children": [
        2
      ],
      "matrix": [
        0.009999999776482582,
        0.0,
        0.0,
        0.0,
        0.0,
        0.0,
        0.009999999776482582,
        0.0,
        0.0,
        -0.009999999776482582,
        0.0,
        0.0,
        0.0,
        0.0,
        0.0,
        1.0
      ],
      "name": "VR Gallery.fbx"
    },
    {
      "children": [
        3
      ],
      "name": "RootNode"
    },
    {
      "children": [
        4,
        5,
        6,
        9,
        11
      ],
      "matrix": [
        3.246409913145782e-05,
        430.00003051757676,
        1.281499951233389e-05,
        0.0,
        1.8795899968148787e-05,
        1.281499805627629e-05,
        -430.00003051757756,
        0.0,
        -1289.9999999999952,
        9.739229227256896e-05,
        -5.638769318139225e-05,
        0.0,
        0.0,
        0.0,
        0.0,
        1.0
      ],
      "name": "Gallery"
    },
    {
      "mesh": 0,
      "name": "Gallery_Structure_0"
    },
    {
      "mesh": 1,
      "name": "Gallery_Backwall_0"
    },
    {
      "children": [
        7,
        8
      ],
      "matrix": [
        1.2074864370856436e-08,
        0.0,
        -0.062015503644942065,
        0.0,
        2.4815418376590353e-24,
        0.1860465407371521,
        4.8317403464407845e-31,
        0.0,
        0.18604654073714857,
        -2.4815418376590823e-24,
        3.6224598915295716e-08,
        0.0,
        -1.7299654483795166,
        1.3234889800848443e-23,
        -4.353625371322778e-08,
        1.0
      ],
      "name": "Benches"
    },
    {
      "mesh": 2,
      "name": "Benches_Benches_0"
    },
    {
      "mesh": 3,
      "name": "Benches_Chrome_0"
    },
    {
      "children": [
        10
      ],
      "matrix": [
        1.5093580463570545e-08,
        -5.695224546721075e-41,
        -0.07751937955617759,
        0.0,
        1.6543612251060241e-24,
        0.23255817592144012,
        3.2211602317578547e-31,
        0.0,
        0.23255817592143574,
        -1.6543612251060557e-24,
        4.5280748644119646e-08,
        0.0,
        -1.8031964302062988,
        6.617444900424222e-24,
        -4.5379181301541394e-08,
        1.0
      ],
      "name": "Podiums"
    },
    {
      "mesh": 4,
      "name": "Podiums_Podiums_0"
    },
    {
      "children": [
        12,
        13
      ],
      "matrix": [
        4.528073994003003e-08,
        -3.4171346185562023e-40,
        -0.23255813121795216,
        0.0,
        2.7572686103589626e-24,
        0.23255817592144012,
        5.3686001943339935e-31,
        0.0,
        0.41860473155974554,
        -4.963083675318166e-24,
        8.150535046077856e-08,
        0.0,
        -0.9780192375183105,
        3.308722450212111e-24,
        -2.4612798910084166e-08,
        1.0
      ],
      "name": "Portraits"
    },
    {
      "mesh": 5,
      "name": "Portraits_PaintingFrame_0"
    },
    {
      "mesh": 6,
      "name": "Portraits_Portraits_0"
    }
  ],
  "samplers": [
    {
      "magFilter": 9729,
      "minFilter": 9987,
      "wrapS": 10497,
      "wrapT": 10497
    }
  ],
  "scene": 0,
  "scenes": [
    {
      "name": "Sketchfab_Scene",
      "nodes": [
        0
      ]
    }
  ],
  "textures": [
    {
      "sampler": 0,
      "source": 0
    },
    {
      "sampler": 0,
      "source": 1
    },
    {
      "sampler": 0,
      "source": 2
    },
    {
      "sampler": 0,
      "source": 3
    },
    {
      "sampler": 0,
      "source": 4
    },
    {
      "sampler": 0,
      "source": 5
    },
    {
      "sampler": 0,
      "source": 6
    },
    {
      "sampler": 0,
      "source": 7
    },
    {
      "sampler": 0,
      "source": 8
    },
    {
      "sampler": 0,
      "source": 9
    },
    {
      "sampler": 0,
      "source": 10
    },
    {
      "sampler": 0,
      "source": 11
    },
    {
      "sampler": 0,
      "source": 12
    },
    {
      "sampler": 0,
      "source": 13
    }
  ]
}
